<svg width="1239" height="962" viewBox="0 0 1239 962" fill="none" xmlns="http://www.w3.org/2000/svg">
<path d="M262.058 288.522V336.604H310.138V288.522V240.444V192.361H262.058V240.444V288.522Z" fill="#07B9E1"/>
<path d="M887.18 240.444V288.522V336.604H935.26V288.522V240.444V192.361H887.18V240.444Z" fill="#07B9E1"/>
<path d="M1031.42 144.283H983.341V192.361H1031.42V144.283Z" fill="#EBA518"/>
<path d="M983.34 96.2H935.26V144.283H983.34V96.2Z" fill="#EBA518"/>
<path d="M694.82 144.283V192.361V240.444V288.522V336.604H646.74V384.682H598.66V432.765H550.582V480.843H502.501V528.964H550.582H598.66H646.74H694.82V480.843H742.9V432.765H790.981V384.682H839.061V336.604V288.522V240.444V192.361V144.283V96.2V48.1219H790.981H742.9H694.82V96.2V144.283Z" fill="#EBA518"/>
<path d="M694.82 865.524H646.74V913.602H694.82H742.9H790.981V865.524H742.9H694.82Z" fill="#EBA518"/>
<path d="M646.74 721.285V673.203V625.125V577.042H598.66V625.125V673.203V721.285V769.364V817.442H646.74H694.82V769.364H646.74V721.285Z" fill="#EBA518"/>
<path d="M358.218 432.765H310.138V480.843H358.218V432.765Z" fill="#EBA518"/>
<path d="M310.138 384.682H262.058V432.765H310.138V384.682Z" fill="#EBA518"/>
<path d="M1031.42 288.522V240.444V192.361H983.341V240.444V288.522V336.604V384.682H1031.42V336.604V288.522Z" fill="#F3CD02"/>
<path d="M983.34 144.283H935.26V192.361H983.34V144.283Z" fill="#F3CD02"/>
<path d="M935.26 384.682H887.18V432.765H839.061V480.843H887.18H935.26V432.765H983.341V384.682H935.26Z" fill="#F3CD02"/>
<path d="M454.421 96.2H406.34V144.283V192.361V240.444V288.522V336.604H454.421V384.682H502.501V432.765V480.843H550.582V432.765H598.66V384.682H646.74V336.604H694.82V288.522V240.444V192.361V144.283V96.2V48.1219H646.74H598.66H550.582H502.501V96.2H454.421Z" fill="#F3CD02"/>
<path d="M550.582 913.602H598.66H646.74V865.524H598.66H550.582H502.501V913.602H550.582Z" fill="#F3CD02"/>
<path d="M598.66 721.285H550.582V769.363H598.66V721.285Z" fill="#F3CD02"/>
<path d="M598.66 625.125V577.042H550.582V625.125V673.203H598.66V625.125Z" fill="#F3CD02"/>
<path d="M310.138 432.765H262.058V480.843H310.138V432.765Z" fill="#F3CD02"/>
<path d="M310.138 96.2H262.058V144.283H310.138V96.2Z" fill="#F3CD02"/>
<path d="M262.058 384.682V336.604H213.98V288.522H165.9V336.604V384.682H213.98V432.765H262.058V384.682Z" fill="#F3CD02"/>
<path d="M262.058 144.283H213.98V192.361H262.058V144.283Z" fill="#F3CD02"/>
<path d="M935.26 96.2H887.18V144.283H935.26V96.2Z" fill="#F3DD85"/>
<path d="M598.66 673.203H550.582V721.286H598.66V673.203Z" fill="#F3DD85"/>
<path d="M550.582 817.442H598.66V769.364H550.582H502.501V817.442H550.582Z" fill="#F3DD85"/>
<path d="M454.421 913.602H502.501V865.524H454.421H406.34V913.602H454.421Z" fill="#F3DD85"/>
<path d="M406.34 432.765H454.421V480.843H502.501V432.765V384.682H454.421V336.604H406.34V288.522V240.444V192.361V144.283V96.2H454.421H502.501V48.1219H454.421H406.34H358.219V96.2V144.283V192.361V240.444V288.522V336.604V384.682H406.34V432.765Z" fill="#F3DD85"/>
<path d="M262.058 96.2H213.98V144.283H262.058V96.2Z" fill="#F3DD85"/>
<path d="M165.9 240.444V288.522H213.98V240.444V192.361V144.283H165.9V192.361V240.444Z" fill="#F3DD85"/>
<path d="M1031.42 240.444V288.522V336.604V384.682H1079.5V336.604V288.522V240.444V192.361V191.416V144.283H1031.42V192.361V240.444Z" fill="black"/>
<path d="M1031.42 384.682H983.341V432.765H1031.42V384.682Z" fill="black"/>
<path d="M1031.42 96.2H983.341V144.283H1031.42V96.2Z" fill="black"/>
<path d="M983.34 432.765H935.26V480.843H983.34V432.765Z" fill="black"/>
<path d="M310.138 96.2V144.283H262.058V192.361H310.138V240.444V288.522V336.605H262.058V384.683H310.138V432.766H358.218V480.844H310.138H262.058V528.966H310.138H358.218H406.34H454.42V540.922V577.044H502.5V625.127V673.205V721.288V769.366H550.581V721.288V673.205V625.127V577.044H598.659H646.739V625.127V673.205V721.288V769.366H694.819V721.288V673.205V625.127V577.044H742.899V540.922V528.966H790.979H839.059H887.178H935.258V480.844H887.178H839.059V432.766H887.178V384.683H935.258H983.338V336.605V288.522V240.444V192.361H935.258V240.444V288.522V336.605H887.178V288.522V240.444V192.361H935.258V144.283H887.178V96.2H935.258H983.338V48.122H935.258H887.178V0H839.059H790.979H742.899H694.819H646.739H598.659H550.581H502.5H454.42H406.34H358.218H310.138V48.122H262.058H213.98V96.2H262.058H310.138ZM358.219 336.604V288.521V240.443V192.36V144.283V96.2V48.122H406.341H454.421H502.501H550.582H598.66H646.74H694.82H742.9H790.98H839.06V96.2V144.283V192.361V240.444V288.522V336.605V384.683H790.98V432.766H742.9V480.844H694.82V528.966H646.74H598.66H550.582H502.501V480.844H454.421V432.766H406.341V384.683H358.219V336.604Z" fill="black"/>
<path d="M742.9 913.602H694.82H646.74H598.66H550.582H502.501H454.421H406.34V865.524H358.219V913.602V927.205V961.724H406.34H454.421H502.501H550.582H598.66H646.74H694.82H742.9H790.981H839.061V927.205V913.602V865.524H790.981V913.602H742.9Z" fill="black"/>
<path d="M646.74 817.442H598.66H550.582H502.501V769.364H454.421V817.442H406.34V865.524H454.421H502.501H550.582H598.66H646.74H694.82H742.9H790.981V817.442H742.9V769.364H694.82V817.442H646.74Z" fill="black"/>
<path d="M262.058 432.765H213.98V480.843H262.058V432.765Z" fill="black"/>
<path d="M262.058 336.604V288.522V240.444V192.361H213.98V240.444V288.522V336.604H262.058Z" fill="black"/>
<path d="M213.98 384.682H165.9V432.765H213.98V384.682Z" fill="black"/>
<path d="M213.98 96.2H165.9V144.283H213.98V96.2Z" fill="black"/>
<path d="M117.82 240.444V288.522V336.604V384.682H165.9V336.604V288.522V240.444V192.361V144.283H117.82V191.416V192.361V240.444Z" fill="black"/>
<path d="M1110.85 721.456L1145.38 628.141L1238.7 593.607L1145.38 559.079L1110.85 465.763L1076.32 559.079L983 593.607L1076.32 628.141L1110.85 721.456Z" fill="white"/>
<path d="M83.031 12.7629L60.605 73.3669L0 95.793L60.605 118.22L83.031 178.824L105.457 118.22L166.061 95.793L105.457 73.3669L83.031 12.7629Z" fill="white"/>
</svg>
