<svg width="528" height="120" viewBox="0 0 528 120" fill="none" xmlns="http://www.w3.org/2000/svg">
<g clip-path="url(#clip0_3_2)">
<path d="M110.934 58.47C110.926 72.3832 105.392 85.7234 95.5492 95.5571C85.7067 105.391 72.3614 110.913 58.4483 110.909C44.5351 110.904 31.1932 105.374 21.3565 95.5348C11.5199 85.6953 5.994 72.3517 5.994 58.4385C5.994 44.5253 11.5199 31.1818 21.3565 21.3422C31.1932 11.5026 44.5351 5.97268 58.4483 5.96851C72.3614 5.96433 85.7067 11.4862 95.5492 21.3199C105.392 31.1536 110.926 44.4938 110.934 58.407" fill="black"/>
<path d="M51.627 98.811L61.857 88.581L42.156 68.88C41.328 68.052 40.428 67.014 39.945 65.838C38.838 63.489 38.355 59.826 41.052 57.129C44.37 53.811 48.792 55.194 53.079 59.481L72.018 78.42L82.248 68.19L62.478 48.42C61.65 47.592 60.681 46.347 60.198 45.309C58.884 42.615 58.953 39.228 61.374 36.807C64.761 33.42 69.183 34.665 74.094 39.573L92.478 57.96L102.708 47.73L82.8 27.822C72.708 17.73 63.24 18.075 56.742 24.573C54.252 27.063 52.731 29.688 51.972 32.661C51.2857 35.42 51.1917 38.293 51.696 41.091L51.558 41.232C46.578 39.159 40.911 40.401 36.558 44.757C30.75 50.562 30.96 56.715 31.65 60.309L31.44 60.519L26.397 56.439L17.547 65.286C20.658 68.121 24.393 71.577 28.608 75.792L51.627 98.811Z" fill="#F2F2F2"/>
<path d="M59.946 2.43739e-05C48.0815 0.0107025 36.4864 3.53871 26.6265 10.1381C16.7667 16.7375 9.08475 26.1119 4.55177 37.0764C0.0187926 48.0409 -1.16171 60.1032 1.1595 71.7385C3.48071 83.3738 9.19941 94.0597 17.5927 102.445C25.986 110.831 36.6771 116.54 48.3145 118.851C59.9518 121.162 72.0131 119.97 82.9735 115.428C93.9339 110.885 103.301 103.194 109.892 93.3286C116.482 83.4628 120 71.8646 120 60V59.928C119.981 44.0182 113.644 28.7672 102.382 17.5291C91.1201 6.2909 75.8559 -0.014306 59.946 2.43739e-05ZM59.673 12.822C72.1348 12.8109 84.0908 17.7498 92.9116 26.5526C101.732 35.3554 106.696 47.3013 106.71 59.763V59.817C106.71 69.1098 103.955 78.1941 98.7931 85.9214C93.6312 93.6487 86.2942 99.6722 77.7096 103.23C69.125 106.789 59.6782 107.722 50.5633 105.912C41.4484 104.103 33.0746 99.6313 26.5004 93.0634C19.9263 86.4955 15.4469 78.126 13.6285 69.0128C11.8101 59.8997 12.7344 50.452 16.2844 41.864C19.8344 33.276 25.8509 25.9333 33.5733 20.764C41.2956 15.5947 50.3772 12.8309 59.67 12.822H59.673Z" fill="#FFBD3F"/>
<path d="M139.641 83.826H153.411V57.306C153.411 56.187 153.507 54.885 153.972 53.766C154.812 51.441 156.951 48.648 160.581 48.648C165.048 48.648 167.094 52.557 167.094 58.326V83.826H180.867V57.21C180.867 56.094 181.053 54.606 181.425 53.58C182.355 50.88 184.683 48.648 187.941 48.648C192.501 48.648 194.643 52.464 194.643 59.073V83.826H208.413V57.024C208.413 43.434 201.807 37.296 193.059 37.296C189.711 37.296 186.918 38.04 184.404 39.528C182.084 40.9234 180.086 42.7945 178.542 45.018H178.356C176.4 40.272 171.747 37.293 165.885 37.293C158.067 37.293 154.065 41.577 152.112 44.463H151.833L151.179 38.319H139.269C139.455 42.321 139.641 47.16 139.641 52.839V83.826ZM257.424 65.586C257.61 64.563 257.889 62.421 257.889 60.003C257.889 48.741 252.306 37.293 237.6 37.293C221.778 37.293 214.614 50.043 214.614 61.584C214.614 75.825 223.455 84.852 238.902 84.852C245.046 84.852 250.722 83.826 255.375 81.966L253.515 72.381C249.699 73.59 245.79 74.241 240.951 74.241C234.342 74.241 228.573 71.451 228.108 65.586H257.424ZM228.015 55.908C228.387 52.092 230.805 46.695 236.763 46.695C243.276 46.695 244.767 52.464 244.767 55.905L228.015 55.908ZM265.851 28.452V38.319H259.8V48.741H265.851V67.356C265.851 73.776 267.153 78.15 269.76 80.85C271.992 83.175 275.808 84.852 280.368 84.852C284.37 84.852 287.721 84.294 289.584 83.547L289.488 72.846C288.107 73.097 286.706 73.2215 285.303 73.218C281.022 73.218 279.717 70.704 279.717 65.214V48.744H289.863V38.319H279.717V25.29L265.851 28.452ZM333.639 56.931C333.639 46.23 328.8 37.293 313.632 37.293C305.349 37.293 299.112 39.528 295.947 41.295L298.554 50.415C301.533 48.555 306.465 46.974 311.118 46.974C318.099 46.974 319.401 50.418 319.401 52.836V53.487C303.3 53.397 292.692 59.073 292.692 70.89C292.692 78.15 298.182 84.852 307.395 84.852C312.792 84.852 317.445 82.896 320.424 79.266H320.703L321.54 83.826H334.29C333.825 81.315 333.639 77.127 333.639 72.753V56.931ZM319.866 67.263C319.866 68.1 319.773 68.937 319.587 69.681C318.657 72.567 315.771 74.892 312.234 74.892C309.069 74.892 306.651 73.122 306.651 69.495C306.651 64.005 312.42 62.235 319.866 62.328V67.263ZM375.009 72.195C372.867 73.125 370.263 73.683 366.912 73.683C360.024 73.683 354.441 69.309 354.441 60.933C354.348 53.487 359.187 48.183 366.633 48.183C370.356 48.183 372.867 48.834 374.544 49.578L376.776 39.063C373.8 37.947 369.705 37.293 365.982 37.293C349.044 37.293 339.924 48.183 339.924 61.491C339.924 75.825 349.323 84.852 364.026 84.852C369.426 84.852 374.172 83.826 376.683 82.71L375.009 72.195ZM382.116 83.826H396.264V60.75C396.264 59.634 396.357 58.518 396.543 57.585C397.473 53.211 401.01 50.421 406.221 50.421C407.805 50.421 409.014 50.607 410.037 50.886V37.485C409.014 37.296 408.363 37.296 407.058 37.296C402.684 37.296 397.101 40.089 394.773 46.698H394.401L393.936 38.322H381.744C381.93 42.231 382.116 46.602 382.116 53.304V83.826ZM429.126 83.826V38.316H414.981V83.826H429.126ZM422.055 18.495C417.495 18.495 414.516 21.567 414.609 25.662C414.516 29.571 417.495 32.733 421.962 32.733C426.615 32.733 429.591 29.571 429.591 25.662C429.498 21.567 426.615 18.495 422.055 18.495ZM439.983 28.452V38.319H433.935V48.741H439.983V67.356C439.983 73.776 441.285 78.15 443.892 80.85C446.124 83.175 449.94 84.852 454.5 84.852C458.502 84.852 461.853 84.294 463.716 83.547L463.623 72.846C462.241 73.0969 460.839 73.2214 459.435 73.218C455.154 73.218 453.849 70.704 453.849 65.214V48.744H463.995V38.319H453.849V25.29L439.983 28.452ZM483.948 83.826V38.316H469.8V83.826H483.948ZM476.874 18.495C472.314 18.495 469.335 21.567 469.428 25.662C469.335 29.571 472.314 32.733 476.781 32.733C481.434 32.733 484.413 29.571 484.413 25.662C484.32 21.567 481.434 18.495 476.874 18.495ZM525.33 72.195C523.188 73.125 520.584 73.683 517.233 73.683C510.345 73.683 504.762 69.309 504.762 60.933C504.669 53.487 509.508 48.183 516.954 48.183C520.677 48.183 523.188 48.834 524.865 49.578L527.097 39.063C524.118 37.947 520.023 37.293 516.303 37.293C499.365 37.293 490.242 48.183 490.242 61.491C490.242 75.825 499.644 84.852 514.347 84.852C519.744 84.852 524.49 83.826 527.004 82.71L525.33 72.195Z" fill="white"/>
</g>
<defs>
<clipPath id="clip0_3_2">
<rect width="528" height="120" fill="white"/>
</clipPath>
</defs>
</svg>
